# Exported from Figuro at https://www.figuro.io

mtllib coin.mtl
o cylinder
v 5.9564342459495405 -0.14293318116587805 13.488435613648457
v -1.6171241093439196e-15 -0.14293318116587805 14.599777502359249
v -1.6171241093439196e-15 5.409804511443703 14.599777502359249
v 5.9564342459495405 5.409804511443703 13.488435613648457
v 11.006055373164152 -0.14293318116587805 10.323601675733006
v 11.006055373164152 5.409804511443703 10.323601675733006
v 14.38010433995493 -0.14293318116587805 5.587092966369453
v 14.38010433995493 5.409804511443703 5.587092966369453
v 15.56491277695802 -0.14293318116587805 0
v 15.56491277695802 5.409804511443703 0
v 14.38010433995493 -0.14293318116587805 -5.587092966369451
v 14.38010433995493 5.409804511443703 -5.587092966369451
v 11.006055373164152 -0.14293318116587805 -10.323601675733006
v 11.006055373164152 5.409804511443703 -10.323601675733006
v 5.956434245949544 -0.14293318116587805 -13.488435613648457
v 5.956434245949544 5.409804511443703 -13.488435613648457
v -1.6171241093439196e-15 -0.14293318116587805 -14.599777502359249
v -1.6171241093439196e-15 5.409804511443703 -14.599777502359249
v -5.9564342459495405 -0.14293318116587805 -13.488435613648457
v -5.9564342459495405 5.409804511443703 -13.488435613648457
v -11.00605537316416 -0.14293318116587805 -10.323601675733006
v -11.00605537316416 5.409804511443703 -10.323601675733006
v -14.380104339954933 -0.14293318116587805 -5.587092966369459
v -14.380104339954933 5.409804511443703 -5.587092966369459
v -15.56491277695802 -0.14293318116587805 -3.0337018303209887e-15
v -15.56491277695802 5.409804511443703 -3.0337018303209887e-15
v -14.380104339954933 -0.14293318116587805 5.587092966369453
v -14.380104339954933 5.409804511443703 5.587092966369453
v -11.006055373164163 -0.14293318116587805 10.323601675733006
v -11.006055373164163 5.409804511443703 10.323601675733006
v -5.956434245949555 -0.14293318116587805 13.48843561364844
v -5.956434245949555 5.409804511443703 13.48843561364844
# 32 vertices
vt 0.023267321273240393 0.9994416672610708
vt -6.316891052124686e-18 0.9994416672610708
vt -6.316891052124686e-18 1.021132048872827
vt 0.023267321273240393 1.021132048872827
vt 0.04299240380142247 0.9994416672610708
vt 0.023267321273240393 0.9994416672610708
vt 0.023267321273240393 1.021132048872827
vt 0.04299240380142247 1.021132048872827
vt -0.021824581899880676 0.9994416672610708
vt -0.04032656904583205 0.9994416672610708
vt -0.04032656904583205 1.021132048872827
vt -0.021824581899880676 1.021132048872827
vt 0 0.9994416672610708
vt -0.021824581899880676 0.9994416672610708
vt -0.021824581899880676 1.021132048872827
vt 0 1.021132048872827
vt 0.02182458189988067 0.9994416672610708
vt 0 0.9994416672610708
vt 0 1.021132048872827
vt 0.02182458189988067 1.021132048872827
vt 0.04032656904583205 0.9994416672610708
vt 0.02182458189988067 0.9994416672610708
vt 0.02182458189988067 1.021132048872827
vt 0.04032656904583205 1.021132048872827
vt -0.023267321273240407 0.9994416672610708
vt -0.04299240380142247 0.9994416672610708
vt -0.04299240380142247 1.021132048872827
vt -0.023267321273240407 1.021132048872827
vt 6.316891052124686e-18 0.9994416672610708
vt -0.023267321273240407 0.9994416672610708
vt -0.023267321273240407 1.021132048872827
vt 6.316891052124686e-18 1.021132048872827
vt 0.023267321273240393 0.9994416672610708
vt 6.316891052124686e-18 0.9994416672610708
vt 6.316891052124686e-18 1.021132048872827
vt 0.023267321273240393 1.021132048872827
vt 0.0429924038014225 0.9994416672610708
vt 0.023267321273240393 0.9994416672610708
vt 0.023267321273240393 1.021132048872827
vt 0.0429924038014225 1.021132048872827
vt -0.0218245818998807 0.9994416672610708
vt -0.04032656904583205 0.9994416672610708
vt -0.04032656904583205 1.021132048872827
vt -0.0218245818998807 1.021132048872827
vt -1.1850397774691362e-17 0.9994416672610708
vt -0.0218245818998807 0.9994416672610708
vt -0.0218245818998807 1.021132048872827
vt -1.1850397774691362e-17 1.021132048872827
vt 0.021824581899880676 0.9994416672610708
vt -1.1850397774691362e-17 0.9994416672610708
vt -1.1850397774691362e-17 1.021132048872827
vt 0.021824581899880676 1.021132048872827
vt 0.04032656904583205 0.9994416672610708
vt 0.021824581899880676 0.9994416672610708
vt 0.021824581899880676 1.021132048872827
vt 0.04032656904583205 1.021132048872827
vt -0.023267321273240448 0.9994416672610708
vt -0.04299240380142251 0.9994416672610708
vt -0.04299240380142251 1.021132048872827
vt -0.023267321273240448 1.021132048872827
vt -6.316891052124686e-18 0.9994416672610708
vt -0.023267321273240448 0.9994416672610708
vt -0.023267321273240448 1.021132048872827
vt -6.316891052124686e-18 1.021132048872827
vt -6.316891052124686e-18 1.0570303808685908
vt 0.023267321273240393 1.0526892016158143
vt 0.04299240380142247 1.040326569045832
vt 0.05617228257794894 1.0218245818998806
vt 0.06080044053499226 1
vt 0.05617228257794894 0.9781754181001193
vt 0.04299240380142247 0.9596734309541679
vt 0.023267321273240407 0.9473107983841857
vt -6.316891052124686e-18 0.9429696191314092
vt -0.023267321273240393 0.9473107983841857
vt -0.0429924038014225 0.9596734309541679
vt -0.056172282577948957 0.9781754181001193
vt -0.06080044053499226 1
vt -0.056172282577948957 1.0218245818998806
vt -0.04299240380142251 1.040326569045832
vt -0.023267321273240448 1.0526892016158143
vt -0.023267321273240448 0.9473107983841857
vt -0.04299240380142251 0.9596734309541679
vt -0.056172282577948957 0.9781754181001193
vt -0.06080044053499226 1
vt -0.056172282577948957 1.0218245818998808
vt -0.0429924038014225 1.040326569045832
vt -0.023267321273240393 1.0526892016158143
vt -6.316891052124686e-18 1.0570303808685908
vt 0.023267321273240407 1.0526892016158143
vt 0.04299240380142247 1.040326569045832
vt 0.05617228257794894 1.0218245818998806
vt 0.06080044053499226 1
vt 0.05617228257794894 0.9781754181001193
vt 0.04299240380142247 0.9596734309541679
vt 0.023267321273240393 0.9473107983841857
vt -6.316891052124686e-18 0.9429696191314092
# 96 uvs
vn 0.23815871230312302 -0.3333333333333333 0.6101227695008359
vn -8.326672684688674e-16 -0.3333333333333333 0.6553572661424928
vn -8.326672684688674e-16 0.3333333333333333 0.6553572661424928
vn 0.23815871230312302 0.3333333333333333 0.6101227695008359
vn 0.4485138732403729 -0.3333333333333333 0.4758419392480963
vn 0.4485138732403729 0.3333333333333333 0.4758419392480963
vn 0.5975748917292166 -0.3333333333333333 0.2625473021550146
vn 0.5975748917292166 0.3333333333333333 0.2625473021550146
vn 0.6521639605271713 -0.3333333333333333 -2.7755575615628914e-17
vn 0.6521639605271713 0.3333333333333333 -2.7755575615628914e-17
vn 0.5975748917292169 -0.3333333333333333 -0.26254730215501454
vn 0.5975748917292169 0.3333333333333333 -0.26254730215501454
vn 0.44851387324037306 -0.3333333333333333 -0.47584193924809615
vn 0.44851387324037306 0.3333333333333333 -0.47584193924809615
vn 0.23815871230312305 -0.3333333333333333 -0.6101227695008358
vn 0.23815871230312305 0.3333333333333333 -0.6101227695008358
vn -6.47630097698008e-17 -0.3333333333333333 -0.6553572661424929
vn -6.47630097698008e-17 0.3333333333333333 -0.6553572661424929
vn -0.2381587123031228 -0.3333333333333333 -0.610122769500836
vn -0.2381587123031228 0.3333333333333333 -0.610122769500836
vn -0.4485138732403728 -0.3333333333333333 -0.4758419392480964
vn -0.4485138732403728 0.3333333333333333 -0.4758419392480964
vn -0.5975748917292169 -0.3333333333333333 -0.2625473021550143
vn -0.5975748917292169 0.3333333333333333 -0.2625473021550143
vn -0.6521639605271713 -0.3333333333333333 -1.850371707708594e-17
vn -0.6521639605271713 0.3333333333333333 -1.850371707708594e-17
vn -0.597574891729217 -0.3333333333333333 0.26254730215501404
vn -0.597574891729217 0.3333333333333333 0.26254730215501404
vn -0.4485138732403726 -0.3333333333333333 0.4758419392480964
vn -0.4485138732403726 0.3333333333333333 0.4758419392480964
vn -0.23815871230312322 -0.3333333333333333 0.6101227695008361
vn -0.23815871230312322 0.3333333333333333 0.6101227695008361
# 32 normals
usemtl e4717a
f 4/4/4 3/3/3 2/2/2 1/1/1 
f 6/8/6 4/7/4 1/6/1 5/5/5 
f 8/12/8 6/11/6 5/10/5 7/9/7 
f 10/16/10 8/15/8 7/14/7 9/13/9 
f 12/20/12 10/19/10 9/18/9 11/17/11 
f 14/24/14 12/23/12 11/22/11 13/21/13 
f 16/28/16 14/27/14 13/26/13 15/25/15 
f 18/32/18 16/31/16 15/30/15 17/29/17 
f 20/36/20 18/35/18 17/34/17 19/33/19 
f 22/40/22 20/39/20 19/38/19 21/37/21 
f 24/44/24 22/43/22 21/42/21 23/41/23 
f 26/48/26 24/47/24 23/46/23 25/45/25 
f 28/52/28 26/51/26 25/50/25 27/49/27 
f 30/56/30 28/55/28 27/54/27 29/53/29 
f 32/60/32 30/59/30 29/58/29 31/57/31 
f 3/64/3 32/63/32 31/62/31 2/61/2 
f 31/80/31 29/79/29 27/78/27 25/77/25 23/76/23 21/75/21 19/74/19 17/73/17 15/72/15 13/71/13 11/70/11 9/69/9 7/68/7 5/67/5 1/66/1 2/65/2 
f 3/96/3 4/95/4 6/94/6 8/93/8 10/92/10 12/91/12 14/90/14 16/89/16 18/88/18 20/87/20 22/86/22 24/85/24 26/84/26 28/83/28 30/82/30 32/81/32 
# 18 polygons